<?xml version="1.0" encoding="UTF-8"?>
<svg width="84px" height="32px" viewBox="0 0 84 32" version="1.1" xmlns="http://www.w3.org/2000/svg" xmlns:xlink="http://www.w3.org/1999/xlink">
    <title>as</title>
    <g id="as" stroke="none" stroke-width="1" fill="none" fill-rule="evenodd">
        <rect id="矩形" x="0" y="0" width="84" height="32"></rect>
        <path d="M69.39816,13.3022954 L68.45073,13.3022954 C66.7860601,13.306529 65.434816,14.6496261 65.42052,16.31424 L65.38398,22.05624 L66.88212,22.05624 L66.88212,16.42647 C66.881427,16.0030746 67.0491347,15.596783 67.348276,15.2971521 C67.6474172,14.9975213 68.053434,14.8291494 68.47683,14.82915 L69.25983,14.8422 C70.1594365,14.8592263 70.8805727,15.5919564 70.88325,16.49172 L70.88325,22.05102 L72.384,22.05102 L72.384,16.28031 C72.3833086,15.4893475 72.0682578,14.7310939 71.5082288,14.1725335 C70.9481999,13.6139732 70.1891216,13.3009145 69.39816,13.3022954 Z M80.214,10.353 L80.214,13.96524 C79.5019291,13.3145207 78.5685181,12.9598245 77.604,12.97344 C75.1506,12.97344 73.22964,14.96487 73.22964,17.50701 C73.22964,20.04915 75.1506,22.05885 77.604,22.05885 C78.5657348,22.078428 79.4988809,21.7312976 80.214,21.08793 L80.214,21.98577 L81.7278,21.98577 L81.7278,10.353 L80.214,10.353 Z M77.604,14.48985 C79.36053,14.48985 80.15919,16.05585 80.15919,17.50701 C80.15919,18.95817 79.36053,20.52417 77.604,20.52417 C76.00146,20.52417 74.733,19.19829 74.733,17.50701 C74.733,15.81573 75.99102,14.48202 77.604,14.48202 L77.604,14.48985 Z M43.20159,16.73184 L42.67959,16.61961 C41.63559,16.39776 41.26497,16.09761 41.26497,15.66174 C41.26497,15.15801 41.96184,14.79261 42.69003,14.79261 C43.41822,14.79261 44.04462,15.14757 44.04462,15.76353 L44.04462,16.05585 L45.82464,16.05585 L45.82464,15.76353 C45.82464,14.22885 44.54835,13.31274 42.69264,13.31274 C40.9335,13.31274 39.48756,14.30193 39.48756,15.66174 C39.48756,16.9041 40.50285,17.69754 42.24894,18.08382 L42.74484,18.18561 C44.29257,18.51186 44.42307,18.96861 44.42307,19.38882 C44.42307,20.09091 43.71576,20.58159 42.70569,20.58159 C41.69562,20.58159 41.00658,19.99434 41.00658,19.18524 L41.00658,18.89292 L39.237,18.89292 L39.237,19.18524 C39.237,20.8713 40.66989,22.05624 42.71874,22.05624 C44.76759,22.05624 46.24224,20.93655 46.24224,19.39404 C46.2318,17.64273 44.77542,17.07897 43.20159,16.73184 Z M57.44436,18.06294 L57.46785,18.18561 C57.73668,19.59501 58.81461,20.53461 60.15093,20.53461 C61.14534,20.53461 61.8918,20.32842 62.36682,19.92387 L62.36682,19.92387 L62.71395,19.62111 L63.81015,20.71731 L63.38472,21.06183 C62.58606,21.71172 61.5003,22.04058 60.15093,22.04058 C59.0488826,22.05009 57.9843867,21.640525 57.17292,20.89479 C56.4446522,20.1885012 55.9983976,19.241254 55.91751,18.22998 L55.91751,18.22998 L55.90185,18.06294 L57.44436,18.06294 Z M60.1431,13.17963 C61.2981494,13.2179244 62.4007527,13.671011 63.249,14.45592 C64.1299475,15.2832876 64.6064524,16.4535836 64.554,17.661 L64.554,17.661 L64.52268,18.37614 L61.422,18.37614 L61.422,16.878 L62.92797,16.878 C62.5993415,15.6076467 61.455264,14.7187618 60.1431,14.71431 C58.81983,14.71431 57.7419,15.64347 57.46263,17.02938 L57.46263,17.02938 L57.43914,17.15205 L55.90185,17.15205 L55.92534,16.97979 C56.2281,14.74563 57.95331,13.17963 60.1431,13.17963 Z M60.27882,16.92759 L60.27882,18.26913 L58.55622,18.26913 L58.55622,16.92759 L60.27882,16.92759 Z M33.64899,10.23555 L28.72653,22.05102 L30.624,22.05102 L32.06211,18.183 L35.87532,18.183 L37.32387,22.05885 L39.20829,22.05885 L34.4868,10.24599 L33.64899,10.23555 Z M35.2959,16.617 L32.66241,16.617 L33.92043,13.52154 C33.9349156,13.4874184 33.9696083,13.4663925 34.00656,13.46934 C34.0440621,13.4668269 34.0792757,13.4875408 34.0953,13.52154 L35.2959,16.617 Z M51.55359,14.99619 C52.2951144,15.0456453 52.9813147,15.4058056 53.44323,15.98799 L53.49021,16.04802 L55.18932,16.04802 L55.08492,15.82617 C54.4193269,14.4716858 53.0619002,13.5938229 51.55359,13.54242 L51.55359,14.99619 Z M48.52077,17.35824 C48.6599253,16.2149247 49.5106298,15.2865974 50.63748,15.04839 L50.63748,13.57374 C48.6694047,13.7846466 47.1395557,15.3828317 47.0148,17.35824 L48.52077,17.35824 Z M53.592,19.3836 L53.54502,19.45146 C52.8845604,20.3604395 51.7433027,20.7845578 50.6495153,20.5274978 C49.555728,20.2704378 48.7228594,19.3823638 48.53643,18.27435 L47.03046,18.27435 C47.24709,20.48763 48.96186,22.05102 51.26649,22.05102 C53.08044,22.05102 54.54726,21.1323 55.18149,19.59762 L55.27023,19.3836 L53.592,19.3836 Z" id="形状结合" fill="#040000" fill-rule="nonzero"></path>
        <path d="M21.28803,2.19675 C21.6202027,1.83984711 22.1331055,1.71523314 22.5920071,1.87993794 C23.0509088,2.04464275 23.367507,2.46697365 23.39691,2.95365 L23.39691,2.95365 L23.42562,10.30863 C19.63851,11.68932 15.1989,14.71431 10.85064,19.6185 L10.85064,19.6185 L10.84281,19.62894 L4.24734,26.99436 C3.79229796,27.5044174 3.09970942,27.7329678 2.43046576,27.5939185 C1.76122211,27.4548692 1.21699738,26.9693451 1.00279576,26.3202385 C0.788594147,25.6711318 0.936957963,24.9570574 1.392,24.447 L1.392,24.447 L17.96811,5.78289 Z M15.19368,17.72886 C17.48787,15.92535 20.16312,14.67777 23.42562,15.01968 L23.42562,15.01968 L23.28468,23.66922 C23.3078846,24.2545137 22.9842847,24.798593 22.4589118,25.0576114 C21.933539,25.3166298 21.304912,25.2420158 20.85477,24.86721 L20.85477,24.86721 Z" id="形状结合" fill="#C31D20" fill-rule="nonzero"></path>
    </g>
</svg>