<svg xmlns="http://www.w3.org/2000/svg" xmlns:xlink="http://www.w3.org/1999/xlink" width="185" height="35" viewBox="0 0 185 35"><defs><path id="fbpsa" d="M433.92 33.87c3 0 4.95-1.25 4.95-3.3 0-.65-.2-1.15-.61-1.59-.55-.54-1.54-.8-2.98-.8h-3.62l-1.57 5.69zm-7.42-11.43h9.1c4.02 0 6.69.88 8.3 2.5a6.64 6.64 0 0 1 1.84 4.85c0 3.98-2.32 7.11-7.24 8.43l3.72 8.02h-7.38l-3.21-7.21h-2.97l-1.95 7.21h-6.66z"/><path id="fbpsb" d="M466 33.2c0-3.04-1.84-5.27-5.26-5.27-4.2 0-6.97 4.05-6.97 7.6 0 3.03 1.84 5.25 5.26 5.25 4.24 0 6.97-4.04 6.97-7.59zM446.94 36c0-7.26 5.98-14 14.35-14 6.86 0 11.51 4.62 11.51 10.69 0 7.25-5.98 14-14.38 14-6.8 0-11.48-4.63-11.48-10.7z"/><path id="fbpsc" d="M478.75 22.44H485l6.22 13.22 3.62-13.22h6.66l-6.49 23.8h-5.84l-6.53-13.69-3.72 13.7h-6.67z"/><path id="fbpsd" d="M510.08 28.24h-7.24l1.57-5.77h21.11L524 28.24h-7.25l-4.88 18h-6.74z"/><path id="fbpse" d="M528.46 22.44h6.7l-6.5 23.8h-6.7z"/><path id="fbpsf" d="M538.1 22.44h19.34l-1.54 5.6h-12.68l-.99 3.6h11.52l-1.4 5.2h-11.52l-1.02 3.77h12.88l-1.5 5.6h-19.52z"/><path id="fbpsg" d="M567.75 33.87c3.01 0 4.96-1.25 4.96-3.3 0-.65-.2-1.15-.62-1.59-.54-.54-1.53-.8-2.97-.8h-3.62l-1.57 5.69zm-7.41-11.43h9.09c4.03 0 6.7.88 8.3 2.5a6.64 6.64 0 0 1 1.85 4.85c0 3.98-2.33 7.11-7.25 8.43l3.76 8.02h-7.38l-3.21-7.21h-2.97l-1.98 7.21h-6.67z"/><path id="fbpsh" d="M423.46 22.44h-19.03c-2.22 0-3.31 1.01-4.07 3.94l-.92 3.44c-.03.1.07.17.17.1 0 0 1.1-.74 2.98-.74h16.12c2.02 0 3.52-1.75 3.93-3.27l.92-3.37c0-.03-.03-.1-.1-.1z"/><path id="fbpsi" d="M420.28 30.97h-18.17c-2.19 0-3.15.84-4.07 3.94l-.92 3.41c-.04.1.07.17.17.1 0 0 1.16-.74 3.04-.74h14.8c2.32 0 3.92-1.79 4.64-4.42l.62-2.22c.03-.04-.04-.07-.1-.07z"/><path id="fbpsj" d="M408.09 39.5h-8.3c-2.16 0-3.25.94-4 3.7l-.79 2.94c0 .07.03.1.1.1h7.93c2.02 0 3.69-1.24 4.44-3.98l.72-2.66c0-.03-.04-.1-.1-.1z"/><path id="fbpsk" d="M395 49.51h.85v6.61h4.2v.78H395z"/><path id="fbpsl" d="M407.57 53.22c0-1.68-1.23-3.06-2.93-3.06-1.71 0-2.9 1.34-2.9 3.03v.03a2.93 2.93 0 0 0 2.93 3.04 2.94 2.94 0 0 0 2.9-3.04zm-6.73 0a3.77 3.77 0 0 1 3.83-3.84c2.25 0 3.8 1.75 3.8 3.78v.03a3.76 3.76 0 0 1-3.83 3.81 3.72 3.72 0 0 1-3.8-3.78z"/><path id="fbpsm" d="M409.28 49.51h.92l2.12 6.14 2.05-6.17h.69l2.05 6.17 2.12-6.14h.88l-2.66 7.42h-.72l-2.05-5.97-2.05 5.97h-.72z"/><path id="fbpsn" d="M424.86 49.51h5.33v.78h-4.5v2.63h4.02v.74h-4.03v3.2h-.85v-7.35z"/><path id="fbpso" d="M435.83 54.17l-1.7-3.75-1.72 3.75zm-2.08-4.72h.78l3.42 7.42h-.92l-.9-1.96h-4.06l-.89 1.96h-.85z"/><path id="fbpsp" d="M442.53 53.26c1.13 0 1.91-.58 1.91-1.52v-.03c0-.91-.72-1.45-1.91-1.45h-2.3v3zm-3.11-3.75h3.21c.92 0 1.64.27 2.12.75a2 2 0 0 1 .58 1.45v.03c0 1.21-.85 1.92-2.02 2.16l2.3 3h-1.03l-2.15-2.87h-2.12v2.87h-.9z"/><path id="fbpsq" d="M447.1 49.51h5.4v.75h-4.54v2.53h4.07v.74h-4.07v2.56h4.61v.74h-5.43v-7.32z"/><path id="fbpsr" d="M453.77 55.79l.51-.61c.79.7 1.54 1.04 2.56 1.04 1 0 1.68-.53 1.68-1.24v-.04c0-.67-.38-1.08-1.95-1.38-1.7-.37-2.5-.91-2.5-2.12v-.04c0-1.14 1.03-2.02 2.47-2.02 1.09 0 1.88.3 2.63.91l-.48.64c-.68-.57-1.4-.8-2.15-.8-.96 0-1.57.53-1.57 1.17v.04c0 .7.37 1.07 2.01 1.41 1.68.37 2.43.95 2.43 2.1v.03c0 1.24-1.06 2.09-2.57 2.09-1.2 0-2.18-.37-3.07-1.18z"/><path id="fbpss" d="M465.11 50.29v5.83h1.75c1.88 0 3.07-1.24 3.07-2.9v-.03c0-1.62-1.2-2.9-3.07-2.9zm-.82-.78h2.6c2.36 0 3.96 1.59 3.96 3.68v.03c0 2.06-1.6 3.68-3.96 3.68h-2.6z"/><path id="fbpst" d="M479.02 53.22c0-1.68-1.23-3.06-2.94-3.06-1.7 0-2.9 1.34-2.9 3.03v.03a2.93 2.93 0 0 0 2.94 3.04 2.94 2.94 0 0 0 2.9-3.04zm-6.73 0a3.77 3.77 0 0 1 3.83-3.84c2.25 0 3.79 1.75 3.79 3.78v.03a3.76 3.76 0 0 1-3.83 3.81 3.72 3.72 0 0 1-3.8-3.78z"/><path id="fbpsu" d="M481.68 49.51h.8l4.7 5.9v-5.9h.83v7.36h-.69l-4.81-6.04v6.04h-.83z"/><path id="fbpsv" d="M490.09 49.51h5.4v.75h-4.55v2.53h4.07v.74h-4.07v2.56h4.62v.74h-5.44v-7.32z"/><path id="fbpsw" d="M503.59 53.26c1.12 0 1.91-.58 1.91-1.52v-.03c0-.91-.72-1.45-1.91-1.45h-2.33v3zm-3.15-3.75h3.22c.92 0 1.64.27 2.11.75a2 2 0 0 1 .58 1.45v.03c0 1.21-.85 1.92-2.01 2.16l2.29 3h-1.03l-2.15-2.87h-2.19v2.87h-.85V49.5z"/><path id="fbpsx" d="M508.23 49.51h.86v7.36h-.86z"/><path id="fbpsy" d="M510.93 53.22c0-2.05 1.5-3.84 3.76-3.84 1.27 0 2.05.37 2.77.98l-.55.64a3.17 3.17 0 0 0-2.25-.84c-1.64 0-2.84 1.38-2.84 3.03v.03c0 1.76 1.13 3.07 2.94 3.07.85 0 1.64-.34 2.15-.74V53.7h-2.25v-.75h3.07v2.94a4.56 4.56 0 0 1-3 1.11 3.62 3.62 0 0 1-3.8-3.78z"/><path id="fbpsz" d="M519.61 49.51h.86v3.28h4.3V49.5h.86v7.36h-.86v-3.3h-4.3v3.3h-.86z"/><path id="fbpsA" d="M529.7 50.29h-2.5v-.78h5.84v.78h-2.5v6.6h-.85z"/><path id="fbpsB" d="M533.9 49.85h-.07v-.1h.06c.04 0 .07.03.07.07 0 .03-.03.07-.07.07zm-.21.24h.1v-.14h.07l.1.14h.1l-.1-.14c.07-.03.1-.06.1-.13 0-.1-.06-.14-.17-.14h-.2zm.17.13c-.2 0-.34-.13-.34-.33 0-.17.13-.34.34-.34.2 0 .34.13.34.34 0 .2-.14.33-.34.33zm0 .04c.2 0 .38-.17.38-.37a.38.38 0 0 0-.76 0c0 .2.17.37.38.37z"/></defs><g><g transform="translate(-395 -22)"><g><g><use fill="#fff" xlink:href="#fbpsa"/></g><g><use fill="#fff" xlink:href="#fbpsb"/></g><g><use fill="#fff" xlink:href="#fbpsc"/></g><g><use fill="#fff" xlink:href="#fbpsd"/></g><g><use fill="#fff" xlink:href="#fbpse"/></g><g><use fill="#fff" xlink:href="#fbpsf"/></g><g><use fill="#fff" xlink:href="#fbpsg"/></g><g><use fill="#fff" xlink:href="#fbpsh"/></g><g><use fill="#fff" xlink:href="#fbpsi"/></g><g><use fill="#fff" xlink:href="#fbpsj"/></g></g><g><g><g><use fill="#fff" xlink:href="#fbpsk"/></g><g><use fill="#fff" xlink:href="#fbpsl"/></g><g><use fill="#fff" xlink:href="#fbpsm"/></g><g><use fill="#fff" xlink:href="#fbpsn"/></g><g><use fill="#fff" xlink:href="#fbpso"/></g><g><use fill="#fff" xlink:href="#fbpsp"/></g><g><use fill="#fff" xlink:href="#fbpsq"/></g><g><use fill="#fff" xlink:href="#fbpsr"/></g><g><use fill="#fff" xlink:href="#fbpss"/></g><g><use fill="#fff" xlink:href="#fbpst"/></g><g><use fill="#fff" xlink:href="#fbpsu"/></g><g><use fill="#fff" xlink:href="#fbpsv"/></g><g><use fill="#fff" xlink:href="#fbpsw"/></g><g><use fill="#fff" xlink:href="#fbpsx"/></g><g><use fill="#fff" xlink:href="#fbpsy"/></g><g><use fill="#fff" xlink:href="#fbpsz"/></g><g><use fill="#fff" xlink:href="#fbpsA"/></g></g><g><g><use fill="#fff" xlink:href="#fbpsB"/></g></g></g></g></g></svg>