<?xml version="1.0" encoding="utf-8"?>
<!-- Generator: Adobe Illustrator 26.5.2, SVG Export Plug-In . SVG Version: 6.00 Build 0)  -->
<svg version="1.1" id="Layer_1" xmlns="http://www.w3.org/2000/svg" xmlns:xlink="http://www.w3.org/1999/xlink" x="0px" y="0px"
	 viewBox="0 0 188 32" style="enable-background:new 0 0 188 32;" xml:space="preserve">
<style type="text/css">
	.st0{fill:#FFFFFF;}
	.st1{fill:url(#SVGID_1_);}
	.st2{fill:url(#SVGID_00000145773777009350159090000014842752716140967834_);}
</style>
<g>
	<g>
		<path class="st0" d="M41.8,8H29.6c-0.7,0-1.3,0.6-1.3,1.3s0.6,1.3,1.3,1.3h4.2v12.2c0,0.8,0.6,1.4,1.4,1.4s1.4-0.6,1.4-1.4V10.5
			h5.3V8z"/>
		<path class="st0" d="M45.7,11.6c-1.7,0-3.3,0.6-4.4,1.8c-1.1,1.1-1.8,2.7-1.8,4.5c0,1.7,0.6,3.4,1.8,4.5c1.2,1.2,2.8,1.8,4.8,1.8
			c2,0,3.7-0.7,4.8-2l0.2-0.2l-1.6-1.8l-0.2,0.3c-0.8,0.9-1.8,1.3-3.1,1.3c-1,0-1.9-0.3-2.6-0.8c-0.6-0.5-1.1-1.2-1.2-2h9.4l0-0.3
			c0-0.2,0-0.5,0-0.7C51.8,14.2,49.3,11.6,45.7,11.6L45.7,11.6z M43.4,14.8c0.6-0.5,1.4-0.8,2.3-0.8c0.9,0,1.7,0.3,2.3,0.8
			c0.6,0.5,0.9,1.1,1.1,1.9h-6.8C42.5,16,42.9,15.3,43.4,14.8L43.4,14.8z"/>
		<path class="st0" d="M53.3,22.8c0,0.8,0.6,1.4,1.4,1.4c0.8,0,1.4-0.6,1.4-1.4V7.1h-2.7V22.8z"/>
		<path class="st0" d="M63.8,11.6c-1.7,0-3.3,0.6-4.4,1.8c-1.1,1.1-1.8,2.7-1.8,4.5c0,1.7,0.6,3.4,1.8,4.5c1.2,1.2,2.8,1.8,4.8,1.8
			c2,0,3.7-0.7,4.8-2l0.2-0.2l-1.6-1.8l-0.2,0.3c-0.8,0.9-1.8,1.3-3.1,1.3c-1,0-1.9-0.3-2.6-0.8c-0.6-0.5-1.1-1.2-1.2-2h9.4l0-0.3
			c0-0.2,0-0.5,0-0.7C69.8,14.2,67.4,11.6,63.8,11.6L63.8,11.6z M61.5,14.8c0.6-0.5,1.4-0.8,2.3-0.8c0.9,0,1.7,0.3,2.3,0.8
			c0.6,0.5,0.9,1.1,1.1,1.9h-6.8C60.6,16,60.9,15.3,61.5,14.8L61.5,14.8z"/>
		<path class="st0" d="M80.7,15.3c-0.8,0-1.4,0.6-1.4,1.4c0,0.8,0.6,1.4,1.4,1.4h2.1l0,2.7c-1,0.6-2,0.9-3.3,0.9
			c-1.6,0-3.1-0.6-4.2-1.6c-1.1-1-1.6-2.4-1.6-4s0.6-3,1.6-4c1.1-1,2.5-1.6,4.2-1.6c1.4,0,2.6,0.4,3.6,1.2c0.2,0.2,0.5,0.3,0.8,0.3
			c0.3,0,0.7-0.1,0.9-0.4c0.3-0.3,0.4-0.6,0.4-1c0-0.4-0.2-0.7-0.5-0.9c-1.4-1.1-3.2-1.7-5.3-1.7c-2.4,0-4.6,0.8-6.1,2.3
			c-1.6,1.5-2.4,3.6-2.4,5.9s0.9,4.4,2.4,5.9c1.6,1.5,3.7,2.3,6.1,2.3c2.4,0,4.5-0.7,6-2l0.1-0.1l0-6.7L80.7,15.3L80.7,15.3z"/>
		<path class="st0" d="M93,11.6c-1.7,0-3.3,0.6-4.4,1.8c-1.1,1.1-1.8,2.7-1.8,4.5c0,1.7,0.6,3.4,1.8,4.5c1.2,1.2,2.8,1.8,4.8,1.8
			c2,0,3.7-0.7,4.8-2l0.2-0.2l-1.6-1.8l-0.2,0.3c-0.8,0.9-1.8,1.3-3.1,1.3c-1,0-1.9-0.3-2.6-0.8c-0.6-0.5-1.1-1.2-1.2-2H99l0-0.3
			c0-0.1,0-0.4,0-0.7C99.1,14.2,96.6,11.6,93,11.6z M90.7,14.8c0.6-0.5,1.4-0.8,2.3-0.8s1.7,0.3,2.3,0.8c0.6,0.5,0.9,1.1,1.1,1.9
			h-6.8C89.8,16,90.2,15.3,90.7,14.8L90.7,14.8z"/>
		<path class="st0" d="M106.5,11.6c-3.7,0-6.4,2.6-6.4,6.2s2.7,6.3,6.4,6.3c3.7,0,6.4-2.6,6.4-6.3c0-1.8-0.6-3.4-1.8-4.5
			C109.9,12.2,108.3,11.6,106.5,11.6L106.5,11.6z M106.5,14.1c1,0,1.9,0.4,2.6,1c0.7,0.7,1,1.6,1,2.8c0,2.2-1.5,3.8-3.6,3.8
			s-3.6-1.6-3.6-3.8S104.4,14.1,106.5,14.1L106.5,14.1z"/>
		<path class="st0" d="M124,13.1c-1-0.9-2.4-1.4-4-1.4s-3.1,0.5-4.2,1.4c-1.1,0.9-1.8,2.3-2,3.8c-0.2,1.7,0.3,3.3,1.5,4.6
			c1.2,1.3,2.9,2.1,4.7,2.1h0c1.5,0,2.9-0.5,3.9-1.4v0.2c0,1.3-0.3,2.1-0.9,2.7c-0.6,0.6-1.5,0.9-2.8,0.9s-2.6-0.3-3.6-0.9
			c-0.2-0.1-0.4-0.2-0.6-0.2c-0.4,0-0.8,0.2-1.1,0.6c-0.2,0.3-0.2,0.6-0.2,1c0.1,0.3,0.3,0.6,0.6,0.8c1.3,0.8,3.1,1.2,4.9,1.2
			c2.1,0,3.7-0.5,4.7-1.5c1.1-1,1.6-2.6,1.6-4.8V11.7H124V13.1L124,13.1z M120.3,21.1c-2.2,0-3.7-1.4-3.7-3.5c0-1,0.4-1.9,1-2.5
			c0.7-0.6,1.6-1,2.7-1s2,0.3,2.7,1c0.7,0.6,1,1.5,1,2.5C124,19.6,122.4,21.1,120.3,21.1z"/>
		<path class="st0" d="M131.6,13.1v-1.3H129v11c0,0.8,0.6,1.4,1.4,1.4s1.4-0.6,1.4-1.4v-4.9c0-1.2,0.3-2.1,0.9-2.7
			c0.6-0.6,1.4-0.9,2.5-0.9c0.1,0,0.3,0,0.4,0l0.3,0v-2.7h-0.3C133.8,11.6,132.5,12.1,131.6,13.1L131.6,13.1z"/>
		<path class="st0" d="M141.9,11.6c-0.1,0-0.1,0-0.2,0c-1.6,0-3,0.4-4.2,1c-0.6,0.3-0.8,1.1-0.5,1.6c0.2,0.4,0.6,0.6,1.1,0.6
			c0.2,0,0.4-0.1,0.6-0.2c0.8-0.4,1.8-0.7,2.8-0.7s1.6,0.2,2.1,0.6c0.5,0.4,0.7,1,0.7,1.9v0.1h-3c-1.7,0-3,0.4-3.8,1.1
			c-0.8,0.6-1.1,1.5-1.1,2.6c0,2.2,1.9,3.7,4.6,3.7c1.5,0,2.7-0.4,3.5-1.2v1h2.6v-7.2c0-1.4-0.5-2.7-1.5-3.6
			C144.5,12.2,143.2,11.7,141.9,11.6L141.9,11.6z M144.3,18.8v1.3c-0.5,1.2-1.6,1.8-3.1,1.8c-0.7,0-1.3-0.1-1.7-0.4
			c-0.4-0.3-0.6-0.7-0.6-1.2c0-0.4,0-1.5,2.4-1.5H144.3L144.3,18.8z"/>
		<path class="st0" d="M155.6,11.6c-1.5,0-2.9,0.5-3.8,1.4v-1.3h-2.6v15.2c0,0.8,0.6,1.4,1.4,1.4c0.8,0,1.4-0.6,1.4-1.4v-4.2
			c1,0.9,2.3,1.4,3.8,1.4c3.6,0,6.2-2.6,6.2-6.3S159.2,11.6,155.6,11.6L155.6,11.6z M159,17.9c0,2.2-1.5,3.8-3.6,3.8
			c-1,0-1.9-0.4-2.6-1c-0.7-0.7-1-1.7-1-2.8s0.4-2.1,1-2.8c0.7-0.7,1.6-1,2.6-1C157.5,14.1,159,15.6,159,17.9L159,17.9z"/>
		<path class="st0" d="M175.1,24v-7c0-1.7-0.5-3.1-1.4-4c-0.9-0.9-2.2-1.3-3.7-1.3c-1.5,0-2.9,0.5-3.8,1.3V8.4
			c0-0.8-0.6-1.4-1.4-1.4c-0.8,0-1.4,0.6-1.4,1.4V24h2.7v-6.3c0-1.1,0.3-2,0.9-2.6c0.6-0.6,1.4-0.9,2.5-0.9c0.9,0,1.6,0.3,2.1,0.8
			c0.5,0.5,0.7,1.3,0.7,2.4V24L175.1,24L175.1,24z"/>
		<path class="st0" d="M187.7,12.3c-0.2-0.4-0.6-0.6-1-0.6c-0.5,0-0.9,0.3-1.1,0.8l-3.5,8.1l-3.5-8.1c-0.2-0.5-0.7-0.8-1.2-0.8
			c-0.4,0-0.9,0.2-1.1,0.6c-0.2,0.4-0.3,0.8-0.1,1.2l4.5,10.1l-0.3,0.7c-0.5,1.2-1,1.6-1.9,1.6c-0.7,0-1.4-0.3-1.9-0.8l-0.3-0.3
			l-1.2,2.1l0.2,0.2c0.8,0.7,1.9,1.2,3.2,1.2c1,0,1.8-0.2,2.5-0.8c0.8-0.5,1.4-1.4,1.9-2.7l5.1-11.5C188,13.1,188,12.7,187.7,12.3
			L187.7,12.3z"/>
	</g>
	<g>
		
			<radialGradient id="SVGID_1_" cx="11.9287" cy="177.9383" r="10.1464" gradientTransform="matrix(1 0 0 -1 0 194)" gradientUnits="userSpaceOnUse">
			<stop  offset="0.2" style="stop-color:#673B00"/>
			<stop  offset="0.28" style="stop-color:#864E00"/>
			<stop  offset="0.39" style="stop-color:#B16900"/>
			<stop  offset="0.51" style="stop-color:#D37D00"/>
			<stop  offset="0.61" style="stop-color:#EB8C00"/>
			<stop  offset="0.71" style="stop-color:#F99500"/>
			<stop  offset="0.8" style="stop-color:#FF9900"/>
		</radialGradient>
		<path class="st1" d="M1.5,24.1c0,0-0.1,0-0.1,0H1.3c-0.7,0-1.2-0.6-1.2-1.2c0-0.7,0.6-1.2,1.2-1.2h0.1c0.5,0,1.6,0,3.2-0.7
			c2.1-1,4.2-2.9,6.3-5.6c2.3-3.1,4.8-5.2,7.3-6.4c2.1-1,3.6-1,4.3-1h0.1c0.7,0,1.2,0.6,1.2,1.2c0,0.7-0.6,1.2-1.2,1.2h-0.1
			c-0.5,0-1.6,0-3.2,0.7c-2.1,1-4.2,2.9-6.3,5.6c-2.3,3.1-4.8,5.2-7.3,6.4C3.7,24.1,2.2,24.1,1.5,24.1L1.5,24.1z"/>
		
			<radialGradient id="SVGID_00000040543317574913367070000000860235574305070208_" cx="11.9393" cy="177.9388" r="8.427" gradientTransform="matrix(1 0 0 -1 0 194)" gradientUnits="userSpaceOnUse">
			<stop  offset="0.2" style="stop-color:#006C62"/>
			<stop  offset="0.27" style="stop-color:#007D73"/>
			<stop  offset="0.42" style="stop-color:#009F93"/>
			<stop  offset="0.56" style="stop-color:#00B7AB"/>
			<stop  offset="0.69" style="stop-color:#00C5B9"/>
			<stop  offset="0.8" style="stop-color:#00CBBE"/>
		</radialGradient>
		<path style="fill:url(#SVGID_00000040543317574913367070000000860235574305070208_);" d="M22.6,17.3H1.3c-0.7,0-1.2-0.6-1.2-1.2
			c0-0.7,0.6-1.2,1.2-1.2h21.2c0.7,0,1.2,0.6,1.2,1.2C23.8,16.7,23.2,17.3,22.6,17.3z"/>
		<path class="st0" d="M22.4,24.1c-0.7,0-2.2,0-4.2-1c-2.5-1.1-4.9-3.3-7.3-6.4c-2.1-2.7-4.2-4.6-6.3-5.6c-1.6-0.7-2.7-0.7-3.2-0.7
			H1.3c-0.7,0-1.2-0.6-1.2-1.2C0.1,8.5,0.6,8,1.3,8h0.1c0.7,0,2.2,0,4.3,1c2.5,1.1,4.9,3.3,7.3,6.4c2.1,2.7,4.2,4.6,6.3,5.6
			c1.6,0.7,2.7,0.7,3.2,0.7h0.1c0.7,0,1.2,0.6,1.2,1.2s-0.6,1.2-1.2,1.2h-0.1C22.5,24.1,22.4,24.1,22.4,24.1L22.4,24.1z"/>
	</g>
</g>
</svg>
