<?xml version="1.0" encoding="UTF-8" standalone="no"?>
<!DOCTYPE svg PUBLIC "-//W3C//DTD SVG 1.1//EN"
 "http://www.w3.org/Graphics/SVG/1.1/DTD/svg11.dtd">
<!-- Generated by graphviz version 4.0.0 (0)
 -->
<!-- Title: Tree Pages: 1 -->
<svg width="867pt" height="671pt"
 viewBox="0.00 0.00 867.00 671.00" xmlns="http://www.w3.org/2000/svg" xmlns:xlink="http://www.w3.org/1999/xlink">
<g id="graph0" class="graph" transform="scale(1 1) rotate(0) translate(4 667)">
<title>Tree</title>
<polygon fill="white" stroke="transparent" points="-4,4 -4,-667 863,-667 863,4 -4,4"/>
<!-- 0 -->
<g id="node1" class="node">
<title>0</title>
<polygon fill="#ffffff" stroke="black" points="529,-663 374,-663 374,-580 529,-580 529,-663"/>
<text text-anchor="middle" x="451.5" y="-647.8" font-family="Helvetica,sans-Serif" font-size="14.00">petal width (cm) &lt;= 0.8</text>
<text text-anchor="middle" x="451.5" y="-632.8" font-family="Helvetica,sans-Serif" font-size="14.00">gini = 0.667</text>
<text text-anchor="middle" x="451.5" y="-617.8" font-family="Helvetica,sans-Serif" font-size="14.00">samples = 150</text>
<text text-anchor="middle" x="451.5" y="-602.8" font-family="Helvetica,sans-Serif" font-size="14.00">value = [50, 50, 50]</text>
<text text-anchor="middle" x="451.5" y="-587.8" font-family="Helvetica,sans-Serif" font-size="14.00">class = setosa</text>
</g>
<!-- 1 -->
<g id="node2" class="node">
<title>1</title>
<polygon fill="#e58139" stroke="black" points="431,-536.5 314,-536.5 314,-468.5 431,-468.5 431,-536.5"/>
<text text-anchor="middle" x="372.5" y="-521.3" font-family="Helvetica,sans-Serif" font-size="14.00">gini = 0.0</text>
<text text-anchor="middle" x="372.5" y="-506.3" font-family="Helvetica,sans-Serif" font-size="14.00">samples = 50</text>
<text text-anchor="middle" x="372.5" y="-491.3" font-family="Helvetica,sans-Serif" font-size="14.00">value = [50, 0, 0]</text>
<text text-anchor="middle" x="372.5" y="-476.3" font-family="Helvetica,sans-Serif" font-size="14.00">class = setosa</text>
</g>
<!-- 0&#45;&gt;1 -->
<g id="edge1" class="edge">
<title>0&#45;&gt;1</title>
<path fill="none" stroke="black" d="M424.09,-579.91C416.49,-568.65 408.23,-556.42 400.59,-545.11"/>
<polygon fill="black" stroke="black" points="403.39,-543 394.89,-536.67 397.59,-546.91 403.39,-543"/>
<text text-anchor="middle" x="390.14" y="-557.51" font-family="Helvetica,sans-Serif" font-size="14.00">True</text>
</g>
<!-- 2 -->
<g id="node3" class="node">
<title>2</title>
<polygon fill="#ffffff" stroke="black" points="612,-544 449,-544 449,-461 612,-461 612,-544"/>
<text text-anchor="middle" x="530.5" y="-528.8" font-family="Helvetica,sans-Serif" font-size="14.00">petal width (cm) &lt;= 1.75</text>
<text text-anchor="middle" x="530.5" y="-513.8" font-family="Helvetica,sans-Serif" font-size="14.00">gini = 0.5</text>
<text text-anchor="middle" x="530.5" y="-498.8" font-family="Helvetica,sans-Serif" font-size="14.00">samples = 100</text>
<text text-anchor="middle" x="530.5" y="-483.8" font-family="Helvetica,sans-Serif" font-size="14.00">value = [0, 50, 50]</text>
<text text-anchor="middle" x="530.5" y="-468.8" font-family="Helvetica,sans-Serif" font-size="14.00">class = versicolor</text>
</g>
<!-- 0&#45;&gt;2 -->
<g id="edge2" class="edge">
<title>0&#45;&gt;2</title>
<path fill="none" stroke="black" d="M478.91,-579.91C484.91,-571.01 491.33,-561.51 497.53,-552.33"/>
<polygon fill="black" stroke="black" points="500.44,-554.27 503.14,-544.02 494.64,-550.35 500.44,-554.27"/>
<text text-anchor="middle" x="507.9" y="-564.86" font-family="Helvetica,sans-Serif" font-size="14.00">False</text>
</g>
<!-- 3 -->
<g id="node4" class="node">
<title>3</title>
<polygon fill="#4de88e" stroke="black" points="501.5,-425 333.5,-425 333.5,-342 501.5,-342 501.5,-425"/>
<text text-anchor="middle" x="417.5" y="-409.8" font-family="Helvetica,sans-Serif" font-size="14.00">petal length (cm) &lt;= 4.95</text>
<text text-anchor="middle" x="417.5" y="-394.8" font-family="Helvetica,sans-Serif" font-size="14.00">gini = 0.168</text>
<text text-anchor="middle" x="417.5" y="-379.8" font-family="Helvetica,sans-Serif" font-size="14.00">samples = 54</text>
<text text-anchor="middle" x="417.5" y="-364.8" font-family="Helvetica,sans-Serif" font-size="14.00">value = [0, 49, 5]</text>
<text text-anchor="middle" x="417.5" y="-349.8" font-family="Helvetica,sans-Serif" font-size="14.00">class = versicolor</text>
</g>
<!-- 2&#45;&gt;3 -->
<g id="edge3" class="edge">
<title>2&#45;&gt;3</title>
<path fill="none" stroke="black" d="M491.3,-460.91C482.44,-451.74 472.96,-441.93 463.85,-432.49"/>
<polygon fill="black" stroke="black" points="466.1,-429.78 456.64,-425.02 461.07,-434.65 466.1,-429.78"/>
</g>
<!-- 12 -->
<g id="node13" class="node">
<title>12</title>
<polygon fill="#843de6" stroke="black" points="728.5,-425 560.5,-425 560.5,-342 728.5,-342 728.5,-425"/>
<text text-anchor="middle" x="644.5" y="-409.8" font-family="Helvetica,sans-Serif" font-size="14.00">petal length (cm) &lt;= 4.85</text>
<text text-anchor="middle" x="644.5" y="-394.8" font-family="Helvetica,sans-Serif" font-size="14.00">gini = 0.043</text>
<text text-anchor="middle" x="644.5" y="-379.8" font-family="Helvetica,sans-Serif" font-size="14.00">samples = 46</text>
<text text-anchor="middle" x="644.5" y="-364.8" font-family="Helvetica,sans-Serif" font-size="14.00">value = [0, 1, 45]</text>
<text text-anchor="middle" x="644.5" y="-349.8" font-family="Helvetica,sans-Serif" font-size="14.00">class = virginica</text>
</g>
<!-- 2&#45;&gt;12 -->
<g id="edge12" class="edge">
<title>2&#45;&gt;12</title>
<path fill="none" stroke="black" d="M570.05,-460.91C579.07,-451.65 588.74,-441.73 598.01,-432.21"/>
<polygon fill="black" stroke="black" points="600.55,-434.63 605.02,-425.02 595.53,-429.74 600.55,-434.63"/>
</g>
<!-- 4 -->
<g id="node5" class="node">
<title>4</title>
<polygon fill="#3de684" stroke="black" points="277,-306 114,-306 114,-223 277,-223 277,-306"/>
<text text-anchor="middle" x="195.5" y="-290.8" font-family="Helvetica,sans-Serif" font-size="14.00">petal width (cm) &lt;= 1.65</text>
<text text-anchor="middle" x="195.5" y="-275.8" font-family="Helvetica,sans-Serif" font-size="14.00">gini = 0.041</text>
<text text-anchor="middle" x="195.5" y="-260.8" font-family="Helvetica,sans-Serif" font-size="14.00">samples = 48</text>
<text text-anchor="middle" x="195.5" y="-245.8" font-family="Helvetica,sans-Serif" font-size="14.00">value = [0, 47, 1]</text>
<text text-anchor="middle" x="195.5" y="-230.8" font-family="Helvetica,sans-Serif" font-size="14.00">class = versicolor</text>
</g>
<!-- 3&#45;&gt;4 -->
<g id="edge4" class="edge">
<title>3&#45;&gt;4</title>
<path fill="none" stroke="black" d="M340.48,-341.91C321.36,-331.83 300.76,-320.98 281.26,-310.7"/>
<polygon fill="black" stroke="black" points="282.86,-307.59 272.39,-306.02 279.6,-313.78 282.86,-307.59"/>
</g>
<!-- 7 -->
<g id="node8" class="node">
<title>7</title>
<polygon fill="#c09cf2" stroke="black" points="499,-306 336,-306 336,-223 499,-223 499,-306"/>
<text text-anchor="middle" x="417.5" y="-290.8" font-family="Helvetica,sans-Serif" font-size="14.00">petal width (cm) &lt;= 1.55</text>
<text text-anchor="middle" x="417.5" y="-275.8" font-family="Helvetica,sans-Serif" font-size="14.00">gini = 0.444</text>
<text text-anchor="middle" x="417.5" y="-260.8" font-family="Helvetica,sans-Serif" font-size="14.00">samples = 6</text>
<text text-anchor="middle" x="417.5" y="-245.8" font-family="Helvetica,sans-Serif" font-size="14.00">value = [0, 2, 4]</text>
<text text-anchor="middle" x="417.5" y="-230.8" font-family="Helvetica,sans-Serif" font-size="14.00">class = virginica</text>
</g>
<!-- 3&#45;&gt;7 -->
<g id="edge7" class="edge">
<title>3&#45;&gt;7</title>
<path fill="none" stroke="black" d="M417.5,-341.91C417.5,-333.65 417.5,-324.86 417.5,-316.3"/>
<polygon fill="black" stroke="black" points="421,-316.02 417.5,-306.02 414,-316.02 421,-316.02"/>
</g>
<!-- 5 -->
<g id="node6" class="node">
<title>5</title>
<polygon fill="#39e581" stroke="black" points="121,-179.5 0,-179.5 0,-111.5 121,-111.5 121,-179.5"/>
<text text-anchor="middle" x="60.5" y="-164.3" font-family="Helvetica,sans-Serif" font-size="14.00">gini = 0.0</text>
<text text-anchor="middle" x="60.5" y="-149.3" font-family="Helvetica,sans-Serif" font-size="14.00">samples = 47</text>
<text text-anchor="middle" x="60.5" y="-134.3" font-family="Helvetica,sans-Serif" font-size="14.00">value = [0, 47, 0]</text>
<text text-anchor="middle" x="60.5" y="-119.3" font-family="Helvetica,sans-Serif" font-size="14.00">class = versicolor</text>
</g>
<!-- 4&#45;&gt;5 -->
<g id="edge5" class="edge">
<title>4&#45;&gt;5</title>
<path fill="none" stroke="black" d="M148.66,-222.91C135.04,-211.1 120.17,-198.22 106.6,-186.45"/>
<polygon fill="black" stroke="black" points="108.62,-183.57 98.77,-179.67 104.03,-188.86 108.62,-183.57"/>
</g>
<!-- 6 -->
<g id="node7" class="node">
<title>6</title>
<polygon fill="#8139e5" stroke="black" points="252,-179.5 139,-179.5 139,-111.5 252,-111.5 252,-179.5"/>
<text text-anchor="middle" x="195.5" y="-164.3" font-family="Helvetica,sans-Serif" font-size="14.00">gini = 0.0</text>
<text text-anchor="middle" x="195.5" y="-149.3" font-family="Helvetica,sans-Serif" font-size="14.00">samples = 1</text>
<text text-anchor="middle" x="195.5" y="-134.3" font-family="Helvetica,sans-Serif" font-size="14.00">value = [0, 0, 1]</text>
<text text-anchor="middle" x="195.5" y="-119.3" font-family="Helvetica,sans-Serif" font-size="14.00">class = virginica</text>
</g>
<!-- 4&#45;&gt;6 -->
<g id="edge6" class="edge">
<title>4&#45;&gt;6</title>
<path fill="none" stroke="black" d="M195.5,-222.91C195.5,-212.2 195.5,-200.62 195.5,-189.78"/>
<polygon fill="black" stroke="black" points="199,-189.67 195.5,-179.67 192,-189.67 199,-189.67"/>
</g>
<!-- 8 -->
<g id="node9" class="node">
<title>8</title>
<polygon fill="#8139e5" stroke="black" points="383,-179.5 270,-179.5 270,-111.5 383,-111.5 383,-179.5"/>
<text text-anchor="middle" x="326.5" y="-164.3" font-family="Helvetica,sans-Serif" font-size="14.00">gini = 0.0</text>
<text text-anchor="middle" x="326.5" y="-149.3" font-family="Helvetica,sans-Serif" font-size="14.00">samples = 3</text>
<text text-anchor="middle" x="326.5" y="-134.3" font-family="Helvetica,sans-Serif" font-size="14.00">value = [0, 0, 3]</text>
<text text-anchor="middle" x="326.5" y="-119.3" font-family="Helvetica,sans-Serif" font-size="14.00">class = virginica</text>
</g>
<!-- 7&#45;&gt;8 -->
<g id="edge8" class="edge">
<title>7&#45;&gt;8</title>
<path fill="none" stroke="black" d="M385.93,-222.91C377.09,-211.54 367.47,-199.18 358.6,-187.77"/>
<polygon fill="black" stroke="black" points="361.2,-185.41 352.3,-179.67 355.67,-189.71 361.2,-185.41"/>
</g>
<!-- 9 -->
<g id="node10" class="node">
<title>9</title>
<polygon fill="#9cf2c0" stroke="black" points="569.5,-187 401.5,-187 401.5,-104 569.5,-104 569.5,-187"/>
<text text-anchor="middle" x="485.5" y="-171.8" font-family="Helvetica,sans-Serif" font-size="14.00">petal length (cm) &lt;= 5.45</text>
<text text-anchor="middle" x="485.5" y="-156.8" font-family="Helvetica,sans-Serif" font-size="14.00">gini = 0.444</text>
<text text-anchor="middle" x="485.5" y="-141.8" font-family="Helvetica,sans-Serif" font-size="14.00">samples = 3</text>
<text text-anchor="middle" x="485.5" y="-126.8" font-family="Helvetica,sans-Serif" font-size="14.00">value = [0, 2, 1]</text>
<text text-anchor="middle" x="485.5" y="-111.8" font-family="Helvetica,sans-Serif" font-size="14.00">class = versicolor</text>
</g>
<!-- 7&#45;&gt;9 -->
<g id="edge9" class="edge">
<title>7&#45;&gt;9</title>
<path fill="none" stroke="black" d="M441.09,-222.91C446.16,-214.2 451.56,-204.9 456.79,-195.89"/>
<polygon fill="black" stroke="black" points="459.95,-197.43 461.95,-187.02 453.9,-193.91 459.95,-197.43"/>
</g>
<!-- 10 -->
<g id="node11" class="node">
<title>10</title>
<polygon fill="#39e581" stroke="black" points="478,-68 357,-68 357,0 478,0 478,-68"/>
<text text-anchor="middle" x="417.5" y="-52.8" font-family="Helvetica,sans-Serif" font-size="14.00">gini = 0.0</text>
<text text-anchor="middle" x="417.5" y="-37.8" font-family="Helvetica,sans-Serif" font-size="14.00">samples = 2</text>
<text text-anchor="middle" x="417.5" y="-22.8" font-family="Helvetica,sans-Serif" font-size="14.00">value = [0, 2, 0]</text>
<text text-anchor="middle" x="417.5" y="-7.8" font-family="Helvetica,sans-Serif" font-size="14.00">class = versicolor</text>
</g>
<!-- 9&#45;&gt;10 -->
<g id="edge10" class="edge">
<title>9&#45;&gt;10</title>
<path fill="none" stroke="black" d="M460.18,-103.73C454.74,-94.97 448.99,-85.7 443.52,-76.91"/>
<polygon fill="black" stroke="black" points="446.43,-74.95 438.18,-68.3 440.48,-78.64 446.43,-74.95"/>
</g>
<!-- 11 -->
<g id="node12" class="node">
<title>11</title>
<polygon fill="#8139e5" stroke="black" points="609,-68 496,-68 496,0 609,0 609,-68"/>
<text text-anchor="middle" x="552.5" y="-52.8" font-family="Helvetica,sans-Serif" font-size="14.00">gini = 0.0</text>
<text text-anchor="middle" x="552.5" y="-37.8" font-family="Helvetica,sans-Serif" font-size="14.00">samples = 1</text>
<text text-anchor="middle" x="552.5" y="-22.8" font-family="Helvetica,sans-Serif" font-size="14.00">value = [0, 0, 1]</text>
<text text-anchor="middle" x="552.5" y="-7.8" font-family="Helvetica,sans-Serif" font-size="14.00">class = virginica</text>
</g>
<!-- 9&#45;&gt;11 -->
<g id="edge11" class="edge">
<title>9&#45;&gt;11</title>
<path fill="none" stroke="black" d="M510.45,-103.73C515.81,-94.97 521.48,-85.7 526.86,-76.91"/>
<polygon fill="black" stroke="black" points="529.89,-78.66 532.12,-68.3 523.92,-75 529.89,-78.66"/>
</g>
<!-- 13 -->
<g id="node14" class="node">
<title>13</title>
<polygon fill="#c09cf2" stroke="black" points="723.5,-306 565.5,-306 565.5,-223 723.5,-223 723.5,-306"/>
<text text-anchor="middle" x="644.5" y="-290.8" font-family="Helvetica,sans-Serif" font-size="14.00">sepal width (cm) &lt;= 3.1</text>
<text text-anchor="middle" x="644.5" y="-275.8" font-family="Helvetica,sans-Serif" font-size="14.00">gini = 0.444</text>
<text text-anchor="middle" x="644.5" y="-260.8" font-family="Helvetica,sans-Serif" font-size="14.00">samples = 3</text>
<text text-anchor="middle" x="644.5" y="-245.8" font-family="Helvetica,sans-Serif" font-size="14.00">value = [0, 1, 2]</text>
<text text-anchor="middle" x="644.5" y="-230.8" font-family="Helvetica,sans-Serif" font-size="14.00">class = virginica</text>
</g>
<!-- 12&#45;&gt;13 -->
<g id="edge13" class="edge">
<title>12&#45;&gt;13</title>
<path fill="none" stroke="black" d="M644.5,-341.91C644.5,-333.65 644.5,-324.86 644.5,-316.3"/>
<polygon fill="black" stroke="black" points="648,-316.02 644.5,-306.02 641,-316.02 648,-316.02"/>
</g>
<!-- 16 -->
<g id="node17" class="node">
<title>16</title>
<polygon fill="#8139e5" stroke="black" points="859,-298.5 742,-298.5 742,-230.5 859,-230.5 859,-298.5"/>
<text text-anchor="middle" x="800.5" y="-283.3" font-family="Helvetica,sans-Serif" font-size="14.00">gini = 0.0</text>
<text text-anchor="middle" x="800.5" y="-268.3" font-family="Helvetica,sans-Serif" font-size="14.00">samples = 43</text>
<text text-anchor="middle" x="800.5" y="-253.3" font-family="Helvetica,sans-Serif" font-size="14.00">value = [0, 0, 43]</text>
<text text-anchor="middle" x="800.5" y="-238.3" font-family="Helvetica,sans-Serif" font-size="14.00">class = virginica</text>
</g>
<!-- 12&#45;&gt;16 -->
<g id="edge16" class="edge">
<title>12&#45;&gt;16</title>
<path fill="none" stroke="black" d="M698.62,-341.91C714.66,-329.88 732.19,-316.73 748.11,-304.79"/>
<polygon fill="black" stroke="black" points="750.38,-307.47 756.28,-298.67 746.18,-301.87 750.38,-307.47"/>
</g>
<!-- 14 -->
<g id="node15" class="node">
<title>14</title>
<polygon fill="#8139e5" stroke="black" points="701,-179.5 588,-179.5 588,-111.5 701,-111.5 701,-179.5"/>
<text text-anchor="middle" x="644.5" y="-164.3" font-family="Helvetica,sans-Serif" font-size="14.00">gini = 0.0</text>
<text text-anchor="middle" x="644.5" y="-149.3" font-family="Helvetica,sans-Serif" font-size="14.00">samples = 2</text>
<text text-anchor="middle" x="644.5" y="-134.3" font-family="Helvetica,sans-Serif" font-size="14.00">value = [0, 0, 2]</text>
<text text-anchor="middle" x="644.5" y="-119.3" font-family="Helvetica,sans-Serif" font-size="14.00">class = virginica</text>
</g>
<!-- 13&#45;&gt;14 -->
<g id="edge14" class="edge">
<title>13&#45;&gt;14</title>
<path fill="none" stroke="black" d="M644.5,-222.91C644.5,-212.2 644.5,-200.62 644.5,-189.78"/>
<polygon fill="black" stroke="black" points="648,-189.67 644.5,-179.67 641,-189.67 648,-189.67"/>
</g>
<!-- 15 -->
<g id="node16" class="node">
<title>15</title>
<polygon fill="#39e581" stroke="black" points="840,-179.5 719,-179.5 719,-111.5 840,-111.5 840,-179.5"/>
<text text-anchor="middle" x="779.5" y="-164.3" font-family="Helvetica,sans-Serif" font-size="14.00">gini = 0.0</text>
<text text-anchor="middle" x="779.5" y="-149.3" font-family="Helvetica,sans-Serif" font-size="14.00">samples = 1</text>
<text text-anchor="middle" x="779.5" y="-134.3" font-family="Helvetica,sans-Serif" font-size="14.00">value = [0, 1, 0]</text>
<text text-anchor="middle" x="779.5" y="-119.3" font-family="Helvetica,sans-Serif" font-size="14.00">class = versicolor</text>
</g>
<!-- 13&#45;&gt;15 -->
<g id="edge15" class="edge">
<title>13&#45;&gt;15</title>
<path fill="none" stroke="black" d="M691.34,-222.91C704.96,-211.1 719.83,-198.22 733.4,-186.45"/>
<polygon fill="black" stroke="black" points="735.97,-188.86 741.23,-179.67 731.38,-183.57 735.97,-188.86"/>
</g>
</g>
</svg>
